# xmcd
#
# Track frame offsets:
#	182
#	34812
#	59477
#	72965
#	109702
#	142612
#	165980
#	189697
#	215447
#	244867
#	282772
#
# Disc length: 4231 seconds
# Revision: 0
# Processed by: cddbd v1.5.2PL0 Copyright (c) Steve Scherf et al.
# Submitted via: dBpowerAMP V12.0
#
DISCID=9a10850b
DTITLE=Various Artist - Absolutely... The Very Best Of Disco
DYEAR=1980
DGENRE=
TTITLE0=Sylvester - I Need You (Extended 12" Mix)
TTITLE1=Carol Jiani - You're Gonna Lose My Love (Extended 12" Mix)
TTITLE2=Pam Todd and Love Exchange - Making Love (Original Album Mix)
TTITLE3=Satin, Silk and Lace - Your Love (Extended 12" Mix)
TTITLE4=Constellation Orchestra - Perfect Love Affair (Extended 12" Mix)
TTITLE5=Hamilton Bohannon - Disco Stomp (Original Album Mix)
TTITLE6=Frankie Smith - Double Dutch Bus (Original Album Mix)
TTITLE7=Gerald Mallory - Lay It Down On Me (Extended 12" Mix)
TTITLE8=Sharon Redd - In The Name Of Love (Extended 12" Mix)
TTITLE9=Wish And La-Rita Gaskin - Nice And Soft (Uptown Mix)
TTITLE10=Bill Brandon - We Fell In Love While Dancing (Extended 12" Mix)
EXTD=
EXTT0=
EXTT1=
EXTT2=
EXTT3=
EXTT4=
EXTT5=
EXTT6=
EXTT7=
EXTT8=
EXTT9=
EXTT10=
PLAYORDER=
